<svg
    xmlns="http://www.w3.org/2000/svg"
    viewBox="0 0 24 24"
    id="vector">
    <path
        id="path"
        d="M 12.002 6.873 C 9.164 6.873 6.875 9.162 6.875 12 C 6.875 14.838 9.164 17.127 12.002 17.127 C 14.84 17.127 17.129 14.838 17.129 12 C 17.129 9.162 14.84 6.873 12.002 6.873 Z M 12.002 15.333 C 10.168 15.333 8.669 13.838 8.669 12 C 8.669 10.162 10.164 8.667 12.002 8.667 C 13.84 8.667 15.335 10.162 15.335 12 C 15.335 13.838 13.836 15.333 12.002 15.333 Z M 18.534 6.664 C 18.534 7.329 17.999 7.86 17.338 7.86 C 16.673 7.86 16.142 7.325 16.142 6.664 C 16.142 6.004 16.677 5.468 17.338 5.468 C 17.998 5.468 18.534 6.003 18.534 6.664 Z M 21.93 7.877 C 21.854 6.275 21.488 4.856 20.315 3.687 C 19.146 2.518 17.727 2.152 16.125 2.072 C 14.474 1.978 9.526 1.978 7.875 2.072 C 6.278 2.148 4.859 2.514 3.685 3.683 C 2.512 4.852 2.15 6.271 2.07 7.873 C 1.976 9.524 1.976 14.472 2.07 16.123 C 2.146 17.725 2.512 19.144 3.685 20.313 C 4.858 21.482 6.273 21.848 7.875 21.928 C 9.526 22.022 14.474 22.022 16.125 21.928 C 17.727 21.852 19.146 21.486 20.315 20.313 C 21.484 19.144 21.85 17.725 21.93 16.123 C 22.024 14.472 22.024 9.528 21.93 7.878 Z M 19.797 17.894 C 19.449 18.769 18.775 19.442 17.896 19.795 C 16.58 20.317 13.457 20.197 12.002 20.197 C 10.547 20.197 7.42 20.313 6.108 19.795 C 5.234 19.447 4.56 18.773 4.207 17.894 C 3.685 16.578 3.806 13.455 3.806 12 C 3.806 10.545 3.69 7.418 4.208 6.106 C 4.556 5.231 5.23 4.558 6.109 4.205 C 7.425 3.683 10.548 3.803 12.003 3.803 C 13.458 3.803 16.585 3.687 17.897 4.205 C 18.772 4.553 19.445 5.227 19.798 6.106 C 20.32 7.422 20.2 10.545 20.2 12 C 20.2 13.455 20.32 16.582 19.798 17.894 Z"
        fill="#000000"/>
</svg>
