<?xml version="1.0" encoding="UTF-8"?>
<svg xmlns="http://www.w3.org/2000/svg" xmlns:xlink="http://www.w3.org/1999/xlink" width="24px" height="24px" viewBox="0 0 24 24" version="1.1">
<g id="surface1">
<path style=" stroke:none;fill-rule:nonzero;fill:rgb(100%,100%,100%);fill-opacity:1;" d="M 11 20 C 10.714844 20 10.480469 19.902344 10.289062 19.710938 C 10.097656 19.519531 10 19.285156 10 19 L 10 13 L 4.023438 5.375 C 3.792969 5.089844 3.757812 4.792969 3.925781 4.476562 C 4.089844 4.160156 4.351562 4 4.699219 4 L 19.300781 4 C 19.648438 4 19.910156 4.160156 20.074219 4.476562 C 20.242188 4.792969 20.207031 5.089844 19.976562 5.375 L 14 13 L 14 19 C 14 19.285156 13.902344 19.519531 13.710938 19.710938 C 13.519531 19.902344 13.285156 20 13 20 Z M 12 13.101562 L 18 5.5 L 6 5.5 Z M 12 13.101562 Z M 12 13.101562 "/>
</g>
</svg>
