<svg viewBox="0 0 1024 1176.463" xmlns="http://www.w3.org/2000/svg"><path d="M671.744 645.21c-48.353-3.18-86.367-43.18-86.367-92.057 0-1.644.043-3.277.128-4.9l-.01.228c-.09-1.537-.144-3.336-.144-5.147 0-48.785 38.082-88.677 86.14-91.57l.255-.012c48.274 2.628 86.423 42.413 86.423 91.107 0 1.98-.063 3.943-.187 5.89l.015-.266c.1 1.61.158 3.49.158 5.38 0 48.742-38.114 88.58-86.163 91.34l-.244.01zm-318.9 0c-48.353-3.18-86.367-43.18-86.367-92.057 0-1.644.043-3.277.128-4.9l-.01.228c-.09-1.537-.143-3.335-.143-5.145 0-48.788 38.084-88.68 86.145-91.573l.255-.012c48.273 2.628 86.42 42.412 86.42 91.106 0 1.98-.062 3.943-.186 5.89l.014-.266c.092 1.537.144 3.335.144 5.145 0 48.787-38.082 88.68-86.14 91.573l-.256.012zm491.738-438.33c-56.414-26.628-121.96-47.677-190.565-59.886l-4.783-.705c-.164-.033-.352-.05-.544-.05-1.112 0-2.08.612-2.587 1.518l-.008.015c-7.48 13.14-15.622 29.554-22.947 46.406l-1.378 3.558c-32.972-5.272-70.986-8.284-109.704-8.284s-76.732 3.012-113.822 8.814l4.117-.53c-8.634-20.148-16.9-36.558-26-52.428l1.303 2.466c-.545-.915-1.53-1.518-2.654-1.518-.17 0-.338.014-.5.04l.017-.002c-73.38 12.883-138.93 33.93-200.19 62.618l4.838-2.035c-.54.234-.98.616-1.277 1.095l-.007.012C86.556 337.305 31.904 498.2 31.904 671.86c0 29.016 1.526 57.674 4.5 85.9l-.3-3.52c.1.915.564 1.706 1.24 2.238l.007.005c68.484 51.225 148.1 92.507 234.01 119.607l5.638 1.534c.266.082.572.13.888.13 1.01 0 1.906-.48 2.473-1.226l.005-.008c17.126-23.048 33.407-49.154 47.53-76.554l1.494-3.19c.206-.4.327-.873.327-1.374 0-1.303-.82-2.414-1.97-2.846l-.022-.007c-29.198-11.26-53.85-23.252-77.333-37.02l2.47 1.34c-.916-.546-1.52-1.53-1.52-2.656 0-.997.474-1.883 1.21-2.446l.006-.005c5.03-3.77 10.065-7.69 14.868-11.653.51-.422 1.17-.678 1.89-.678.44 0 .856.095 1.23.266l-.018-.008c70.642 33.95 153.584 53.784 241.16 53.784s170.515-19.835 244.577-55.257l-3.42 1.473c.37-.18.807-.285 1.267-.285.71 0 1.364.25 1.874.67l-.005-.004c4.807 3.96 9.838 7.923 14.91 11.694.75.568 1.23 1.46 1.23 2.462 0 1.115-.593 2.092-1.48 2.632l-.015.008c-21.145 12.63-45.818 24.618-71.533 34.51l-3.365 1.138c-1.16.453-1.97 1.562-1.97 2.86 0 .515.127 1 .35 1.424l-.007-.017c16.02 30.732 32.273 56.808 50.258 81.543l-1.273-1.837c.558.777 1.46 1.277 2.477 1.277.318 0 .624-.05.912-.14l-.022.007c91.693-28.542 171.446-69.836 242.106-122.63l-2.083 1.49c.696-.513 1.166-1.3 1.25-2.196l.002-.012c2.777-25.097 4.362-54.197 4.362-83.668 0-173.276-54.77-333.76-147.942-465.086l1.68 2.494c-.27-.517-.703-.918-1.23-1.138l-.017-.006z"/></svg>